<svg xmlns="http://www.w3.org/2000/svg" xmlns:xlink="http://www.w3.org/1999/xlink" width="500" zoomAndPan="magnify" viewBox="0 0 375 374.999991" height="500" preserveAspectRatio="xMidYMid meet" version="1.0"><defs><g/><clipPath id="a478b36f00"><path d="M 8.453125 8.453125 L 366.546875 8.453125 L 366.546875 366.546875 L 8.453125 366.546875 Z M 8.453125 8.453125 " clip-rule="nonzero"/></clipPath><clipPath id="2fa1a31579"><path d="M 187.5 8.453125 C 88.617188 8.453125 8.453125 88.617188 8.453125 187.5 C 8.453125 286.382812 88.617188 366.546875 187.5 366.546875 C 286.382812 366.546875 366.546875 286.382812 366.546875 187.5 C 366.546875 88.617188 286.382812 8.453125 187.5 8.453125 Z M 187.5 8.453125 " clip-rule="nonzero"/></clipPath></defs><g clip-path="url(#a478b36f00)"><g clip-path="url(#2fa1a31579)"><path fill="#ffffff" d="M 8.453125 8.453125 L 366.546875 8.453125 L 366.546875 366.546875 L 8.453125 366.546875 Z M 8.453125 8.453125 " fill-opacity="1" fill-rule="nonzero"/></g></g><g fill="#fbaf5d" fill-opacity="1"><g transform="translate(67.818146, 295.874981)"><g><path d="M 54.390625 0 L 10.875 0 L 10.875 -195.828125 C 10.875 -201.804688 13.003906 -206.925781 17.265625 -211.1875 C 21.523438 -215.457031 26.648438 -217.59375 32.640625 -217.59375 C 38.617188 -217.59375 43.785156 -215.414062 48.140625 -211.0625 L 184.953125 -74.25 L 184.953125 -217.59375 L 228.46875 -217.59375 L 228.46875 -21.765625 C 228.46875 -15.773438 226.335938 -10.648438 222.078125 -6.390625 C 217.816406 -2.128906 212.691406 0 206.703125 0 C 200.722656 0 195.554688 -2.175781 191.203125 -6.53125 L 54.390625 -143.328125 Z M 54.390625 0 "/></g></g></g></svg>